<svg width="46" height="48" viewBox="0 0 46 48" fill="none" xmlns="http://www.w3.org/2000/svg">
<rect width="46" height="48" fill="#81B3D2"/>
<path d="M25.95 17.144C27.635 16.648 28.934 17.414 29.527 18.323C30.2 18.092 30.858 17.842 31.538 17.615C31.5249 18.3014 31.2117 18.9475 30.681 19.383C31.366 19.553 31.985 18.892 31.985 18.892C31.816 19.892 30.979 20.68 30.422 20.916C30.191 27.666 27.247 32.133 20.345 31.998H19.899C19.489 31.998 15.735 31.538 15.001 30.111C17.272 30.307 18.894 29.689 19.694 28.934C18.734 28.634 17.015 28.457 16.715 25.984C17.064 26.09 17.279 26.212 17.905 26.103C16.705 25.247 15.374 24.53 15.448 22.33C15.733 22.658 16.515 22.866 16.788 22.802C16.085 22.561 14.818 19.442 15.894 17.85C17.712 19.704 19.629 21.456 23.046 21.623C23.254 19.33 24.183 17.793 25.95 17.144Z" fill="white"/>
</svg>
