<svg width="13" height="15" viewBox="0 0 13 15" fill="none" xmlns="http://www.w3.org/2000/svg">
<path d="M10.8295 6.56V3.75C10.8295 2.75544 10.3733 1.80161 9.56141 1.09835C8.74947 0.395088 7.64825 0 6.5 0C5.35175 0 4.25053 0.395088 3.43859 1.09835C2.62666 1.80161 2.17052 2.75544 2.17052 3.75V6.56C1.59486 6.56 1.04278 6.75807 0.635729 7.11064C0.228679 7.46321 0 7.94139 0 8.44L0 13.13C0 13.626 0.227462 14.1016 0.632348 14.4523C1.03723 14.803 1.58638 15 2.15897 15H10.8295C11.4051 15 11.9572 14.8019 12.3643 14.4494C12.7713 14.0968 13 13.6186 13 13.12V8.44C12.9939 7.94394 12.763 7.46983 12.3569 7.11998C11.9508 6.77013 11.4022 6.5726 10.8295 6.57V6.56ZM7.07726 11.11V12.66C7.07726 12.7847 7.02009 12.9042 6.91833 12.9923C6.81657 13.0805 6.67855 13.13 6.53464 13.13C6.39072 13.13 6.2527 13.0805 6.15094 12.9923C6.04918 12.9042 5.99201 12.7847 5.99201 12.66V11.11C5.82794 11.0327 5.69096 10.9186 5.59547 10.7795C5.49998 10.6405 5.44951 10.4818 5.44938 10.32C5.43193 10.1959 5.44324 10.07 5.48265 9.94976C5.52205 9.8295 5.58876 9.71724 5.67886 9.61958C5.76897 9.52191 5.88066 9.4408 6.0074 9.38098C6.13414 9.32116 6.27338 9.28384 6.41698 9.2712C6.56057 9.25856 6.70564 9.27086 6.84368 9.30738C6.98172 9.3439 7.10997 9.4039 7.22091 9.48387C7.33185 9.56384 7.42326 9.66218 7.48978 9.77313C7.55631 9.88407 7.59662 10.0054 7.60835 10.13C7.61981 10.1929 7.61981 10.2571 7.60835 10.32C7.60822 10.4818 7.55775 10.6405 7.46226 10.7795C7.36677 10.9186 7.22979 11.0327 7.06572 11.11H7.07726ZM8.65897 6.56H4.34103V3.75C4.38099 3.27638 4.62641 2.8334 5.02798 2.51007C5.42954 2.18674 5.9575 2.00702 6.50577 2.00702C7.05404 2.00702 7.582 2.18674 7.98357 2.51007C8.38514 2.8334 8.63056 3.27638 8.67052 3.75V6.56H8.65897Z" fill="black"/>
</svg>
