<svg width="22" height="22" viewBox="0 0 22 22" fill="none" xmlns="http://www.w3.org/2000/svg">
<g filter="url(#filter0_d)">
<path d="M10.3248 8.08751L10.2435 8.1692L8.78989 9.64987C8.69512 9.74558 8.61619 9.85589 8.5561 9.97664C8.45915 10.1664 8.41455 10.3788 8.42691 10.5917C8.43928 10.8047 8.50817 11.0104 8.62643 11.1876C8.74469 11.3647 8.908 11.5068 9.09941 11.5992C9.29082 11.6915 9.50334 11.7307 9.71491 11.7126C10.0203 11.6923 10.3069 11.5575 10.5179 11.3348L12.3985 9.43543L14.1875 7.67905C14.2667 7.59853 14.3319 7.50536 14.3806 7.40334C14.4766 7.21332 14.5189 7.00048 14.5027 6.788C14.4866 6.57553 14.4127 6.37158 14.2892 6.19838C14.1469 6.02479 13.9944 5.87162 13.8419 5.70823L10.3553 2.24653C10.2214 2.11997 10.0591 2.02786 9.88203 1.97807C9.70502 1.92828 9.51863 1.92229 9.3388 1.96061C9.05647 2.00198 8.80127 2.15214 8.62725 2.37928C8.46239 2.57022 8.36579 2.81103 8.3528 3.06345C8.33381 3.25302 8.35983 3.44442 8.42875 3.62193C8.49766 3.79944 8.60749 3.958 8.74923 4.0846L10.3553 5.69802H5.039C4.74851 5.7471 4.4852 5.89929 4.29696 6.1269C4.17625 6.26453 4.08871 6.42822 4.04112 6.60531C3.99352 6.78239 3.98715 6.9681 4.0225 7.14805C4.08173 7.39715 4.22107 7.61968 4.41894 7.78117C4.635 7.97943 4.91929 8.08561 5.21181 8.0773H10.2943L10.3248 8.08751ZM15.6106 7.00509V11.0182C15.6125 11.1187 15.5892 11.2181 15.5431 11.3073C15.4969 11.3964 15.4293 11.4726 15.3463 11.5288C15.2232 11.6106 15.0769 11.65 14.9296 11.6411H13.6386C13.3736 11.7048 13.1374 11.8558 12.9677 12.07C12.8703 12.1938 12.7982 12.3357 12.7556 12.4876C12.7131 12.6395 12.7009 12.7984 12.7198 12.955C12.7387 13.1117 12.7883 13.263 12.8657 13.4003C12.9432 13.5376 13.0469 13.6581 13.171 13.7549C13.3698 13.9152 13.6175 14.0018 13.8724 14H15.5395C15.7983 13.9587 16.0488 13.8759 16.2815 13.7549C16.5096 13.6407 16.7216 13.4965 16.9117 13.326C17.2059 13.0822 17.4509 12.7841 17.6334 12.4478C17.8769 12.0043 17.9996 11.5042 17.9892 10.9978V2.64478C17.9575 2.32484 17.8679 2.0134 17.7249 1.72574C17.5171 1.29848 17.2145 0.924721 16.8406 0.633113C16.3256 0.223462 15.6881 0.000387472 15.0312 0H13.6894C13.4345 0.0513327 13.2028 0.183821 13.0287 0.377826C12.8508 0.566986 12.7411 0.810589 12.7171 1.06973C12.6932 1.32887 12.7563 1.5886 12.8966 1.80744C13.0006 1.98443 13.1495 2.13057 13.3281 2.23102C13.5066 2.33146 13.7084 2.38261 13.9131 2.37928H15.1125C15.2564 2.39698 15.39 2.46318 15.4915 2.56705C15.5931 2.67092 15.6566 2.80632 15.6716 2.95112V6.97446L15.6106 7.00509Z" fill="white"/>
<path d="M10.3248 8.08751H5.24231C4.94979 8.09582 4.6655 7.98964 4.44943 7.79138C4.23832 7.63206 4.0877 7.40509 4.0225 7.14805C3.98715 6.9681 3.99352 6.78239 4.04112 6.60531C4.08871 6.42822 4.17625 6.26453 4.29696 6.1269C4.48249 5.89238 4.74593 5.73287 5.039 5.6776H10.3553L10.274 5.5959L8.74923 4.0846C8.60749 3.958 8.49766 3.79944 8.42875 3.62193C8.35983 3.44442 8.33381 3.25302 8.3528 3.06345C8.36579 2.81103 8.46239 2.57022 8.62725 2.37928C8.80127 2.15214 9.05647 2.00198 9.3388 1.96061C9.51863 1.92229 9.70502 1.92828 9.88203 1.97807C10.0591 2.02786 10.2214 2.11997 10.3553 2.24653L13.8012 5.6776C13.9537 5.83077 14.1062 5.99415 14.2485 6.16775C14.3721 6.34095 14.4459 6.5449 14.4621 6.75737C14.4782 6.96984 14.436 7.18268 14.34 7.37271C14.2913 7.47472 14.226 7.5679 14.1469 7.64842L12.3985 9.43543L10.5281 11.3348C10.3171 11.5575 10.0305 11.6923 9.72507 11.7126C9.51351 11.7307 9.30098 11.6915 9.10957 11.5992C8.91817 11.5068 8.75485 11.3647 8.63659 11.1876C8.51834 11.0104 8.44945 10.8047 8.43708 10.5917C8.42471 10.3788 8.46932 10.1664 8.56626 9.97664C8.62636 9.85589 8.70528 9.74558 8.80006 9.64987L10.2537 8.1692L10.335 8.09772L10.3248 8.08751Z" fill="white"/>
<path d="M15.6106 7.00509V2.98176C15.5997 2.84105 15.5431 2.70784 15.4494 2.60266C15.3557 2.49748 15.2302 2.42616 15.0922 2.3997H13.8927C13.6881 2.40304 13.4863 2.35188 13.3077 2.25144C13.1292 2.151 12.9803 2.00485 12.8762 1.82786C12.7453 1.62472 12.6813 1.38538 12.6933 1.14369C12.7128 0.850671 12.8439 0.576447 13.0592 0.377826C13.2333 0.183821 13.465 0.0513327 13.7199 0H15.0617C15.7186 0.000387472 16.3561 0.223462 16.8711 0.633113C17.2306 0.905262 17.5256 1.25399 17.7351 1.65426C17.8781 1.94192 17.9676 2.25336 17.9994 2.5733V10.9467C18.0098 11.4531 17.8871 11.9533 17.6436 12.3968C17.461 12.7331 17.216 13.0312 16.9219 13.275C16.7317 13.4454 16.5198 13.5897 16.2917 13.7038C16.059 13.8249 15.8084 13.9076 15.5496 13.9489C15.3362 13.9489 15.1125 13.9489 14.8991 13.9489H13.8826C13.6291 13.9648 13.3779 13.8927 13.171 13.7447C12.9313 13.5535 12.775 13.2761 12.7351 12.9712C12.6953 12.6663 12.775 12.3577 12.9575 12.1108C13.1272 11.8966 13.3634 11.7456 13.6284 11.682H14.9194C15.0668 11.6909 15.213 11.6515 15.3362 11.5696C15.4191 11.5134 15.4867 11.4373 15.5329 11.3481C15.5791 11.2589 15.6023 11.1596 15.6004 11.0591V6.97446L15.6106 7.00509Z" fill="white"/>
</g>
<defs>
<filter id="filter0_d" x="0" y="0" width="22" height="22" filterUnits="userSpaceOnUse" color-interpolation-filters="sRGB">
<feFlood flood-opacity="0" result="BackgroundImageFix"/>
<feColorMatrix in="SourceAlpha" type="matrix" values="0 0 0 0 0 0 0 0 0 0 0 0 0 0 0 0 0 0 127 0"/>
<feOffset dy="4"/>
<feGaussianBlur stdDeviation="2"/>
<feColorMatrix type="matrix" values="0 0 0 0 0 0 0 0 0 0 0 0 0 0 0 0 0 0 0.25 0"/>
<feBlend mode="normal" in2="BackgroundImageFix" result="effect1_dropShadow"/>
<feBlend mode="normal" in="SourceGraphic" in2="effect1_dropShadow" result="shape"/>
</filter>
</defs>
</svg>
