<svg width="141" height="43" viewBox="0 0 141 43" fill="none" xmlns="http://www.w3.org/2000/svg">
<path d="M128 12H112C111.47 12 110.961 12.2107 110.586 12.5858C110.211 12.9609 110 13.4696 110 14V30C110 30.5304 110.211 31.0391 110.586 31.4142C110.961 31.7893 111.47 32 112 32H128C128.53 32 129.039 31.7893 129.414 31.4142C129.789 31.0391 130 30.5304 130 30V14C130 13.4696 129.789 12.9609 129.414 12.5858C129.039 12.2107 128.53 12 128 12V12ZM120 18C120.791 18 121.564 18.2346 122.222 18.6741C122.88 19.1136 123.393 19.7384 123.696 20.4693C123.998 21.2002 124.077 22.0044 123.923 22.7804C123.769 23.5563 123.388 24.269 122.828 24.8284C122.269 25.3878 121.556 25.7688 120.78 25.9231C120.004 26.0775 119.2 25.9983 118.469 25.6955C117.738 25.3928 117.114 24.8801 116.674 24.2223C116.235 23.5645 116 22.7911 116 22C116 20.9391 116.421 19.9217 117.172 19.1716C117.922 18.4214 118.939 18 120 18ZM112.5 30C112.438 30.0041 112.376 29.9959 112.318 29.976C112.259 29.956 112.205 29.9247 112.159 29.8839C112.112 29.843 112.074 29.7933 112.047 29.7377C112.02 29.6822 112.004 29.6218 112 29.56V21H114.1C114.017 21.3265 113.983 21.6635 114 22C114 23.5913 114.632 25.1174 115.757 26.2426C116.883 27.3679 118.409 28 120 28C121.591 28 123.117 27.3679 124.243 26.2426C125.368 25.1174 126 23.5913 126 22C126.017 21.6635 125.983 21.3265 125.9 21H128V29.5C128.004 29.5617 127.996 29.6237 127.976 29.6823C127.956 29.7409 127.925 29.7949 127.884 29.8414C127.843 29.8878 127.793 29.9258 127.738 29.953C127.682 29.9802 127.622 29.9962 127.56 30H112.5ZM128 16.5C128.004 16.5617 127.996 16.6237 127.976 16.6823C127.956 16.7409 127.925 16.7949 127.884 16.8414C127.843 16.8878 127.793 16.9258 127.738 16.953C127.682 16.9802 127.622 16.9962 127.56 17H125.5C125.438 17.0041 125.376 16.9959 125.318 16.976C125.259 16.956 125.205 16.9247 125.159 16.8839C125.112 16.843 125.074 16.7933 125.047 16.7377C125.02 16.6822 125.004 16.6218 125 16.56V14.5C124.996 14.4383 125.004 14.3763 125.024 14.3177C125.044 14.2591 125.075 14.2051 125.116 14.1586C125.157 14.1122 125.207 14.0742 125.262 14.047C125.318 14.0198 125.378 14.0038 125.44 14H127.5C127.562 13.9959 127.624 14.0041 127.682 14.024C127.741 14.044 127.795 14.0753 127.841 14.1161C127.888 14.157 127.926 14.2067 127.953 14.2623C127.98 14.3178 127.996 14.3782 128 14.44V16.5Z" fill="black"/>
<path d="M68.6238 11.1312C69.5935 10.3762 70.8239 9.97477 72.0867 10.0012H76V13.8612H73.4698C73.1989 13.8503 72.9324 13.9284 72.7169 14.0819C72.5014 14.2354 72.3505 14.4546 72.2904 14.7012V17.2812H76C75.9142 18.5212 75.7212 19.7612 75.5604 21.0012H72.3441V32.0012H67.4016V21.0012H65V17.3012H67.3801V13.7112C67.4318 12.7359 67.8759 11.8146 68.6238 11.1312Z" fill="black"/>
<path d="M34.7852 27.4705L34.6932 27.3017C33.9568 26.1851 33.0533 25.181 32.0123 24.3226C31.6176 23.9675 31.2419 23.593 30.8868 23.2005C30.7231 23.0532 30.6134 22.858 30.5746 22.6447C30.5358 22.4313 30.57 22.2115 30.6719 22.0188C31.0199 21.3838 31.4385 20.7877 31.9202 20.2412L32.8309 19.0794C34.4476 16.994 35.1297 15.6699 34.8773 15.1072L34.7852 14.9781C34.6739 14.8678 34.5316 14.7918 34.376 14.7597C34.079 14.7 33.7725 14.7 33.4755 14.7597H29.4952C29.4056 14.7301 29.3085 14.7301 29.2189 14.7597H28.912C28.8515 14.7952 28.7992 14.8425 28.7585 14.8987C28.696 14.9707 28.6443 15.0509 28.605 15.137C28.1842 16.1904 27.6849 17.2126 27.1111 18.1956C26.7632 18.7517 26.446 19.1886 26.1493 19.6553C25.9257 19.9693 25.6759 20.2649 25.4023 20.5391C25.2315 20.7083 25.0504 20.8675 24.86 21.0158C24.7066 21.135 24.5838 21.1846 24.5019 21.1648L24.2666 21.1151C24.1331 21.0304 24.0239 20.9143 23.9494 20.7775C23.8582 20.6148 23.8025 20.4356 23.7857 20.2512V15.6137C23.8061 15.4089 23.8061 15.2027 23.7857 14.998C23.7535 14.848 23.7055 14.7015 23.6424 14.5611C23.5844 14.4229 23.4845 14.3051 23.3559 14.2234C23.1953 14.14 23.0229 14.0798 22.8443 14.0447C22.2182 13.9851 21.5877 13.9851 20.9616 14.0447C19.8363 13.9431 18.7013 14.0475 17.6157 14.3525C17.4128 14.4535 17.2321 14.5918 17.0836 14.7597C16.9097 14.9583 16.8892 15.0675 17.012 15.0874C17.2471 15.0982 17.4774 15.1559 17.6886 15.2566C17.8998 15.3574 18.0874 15.4992 18.2398 15.6733L18.3217 15.8321C18.4142 16.0359 18.4828 16.2491 18.5263 16.4677C18.5874 16.7961 18.6284 17.1277 18.6491 17.4607C18.69 18.0261 18.69 18.5935 18.6491 19.1588C18.6491 19.6355 18.557 20.0029 18.5161 20.2611C18.4665 20.5004 18.3729 20.7292 18.2398 20.9364C18.1955 21.0438 18.1407 21.1469 18.0761 21.2442L18.0045 21.3137C17.883 21.3567 17.7552 21.3802 17.6259 21.3832C17.472 21.3413 17.3314 21.2628 17.2166 21.1548C17.0031 21.0005 16.8075 20.824 16.6334 20.6285C16.3853 20.3371 16.1596 20.0285 15.9581 19.705C15.6698 19.2455 15.4068 18.7715 15.1702 18.2849L14.9349 17.8977L14.3516 16.7855C14.1138 16.3202 13.902 15.8429 13.7172 15.3555C13.6538 15.1795 13.5359 15.0269 13.3796 14.9185H13.3079C13.2544 14.8576 13.1924 14.8041 13.1238 14.7597C13.005 14.7159 12.8814 14.6859 12.7554 14.6703L8.91834 14.7001C8.77256 14.6884 8.62589 14.7071 8.48821 14.7551C8.35053 14.8031 8.22505 14.8791 8.12023 14.9781H8.00768C7.99744 15.0506 7.99744 15.1241 8.00768 15.1966C8.01919 15.3219 8.04668 15.4453 8.08954 15.564C8.65571 16.8881 9.26964 18.1294 9.93132 19.2879C10.5862 20.4696 11.1592 21.4229 11.6401 22.1479C12.121 22.8728 12.6633 23.558 13.1545 24.2035C13.6456 24.8489 14.0344 25.266 14.1777 25.4448L14.5563 25.8519L14.9042 26.1895C15.2268 26.4698 15.5687 26.7286 15.9274 26.9641C16.3997 27.2994 16.8916 27.6078 17.4008 27.8876C17.9816 28.1995 18.6003 28.4397 19.2426 28.6026C19.9109 28.8057 20.6094 28.8997 21.3095 28.8807H22.9262C23.2054 28.8784 23.4729 28.7717 23.6731 28.5828V28.5132C23.7177 28.4349 23.752 28.3515 23.7754 28.265C23.7856 28.1427 23.7856 28.0198 23.7754 27.8976C23.765 27.5444 23.7959 27.1913 23.8675 26.8449C23.9086 26.5997 23.9879 26.3619 24.1029 26.1399C24.1803 25.9906 24.2803 25.8533 24.3996 25.7327L24.6349 25.5341H24.7475C24.888 25.5053 25.0336 25.5092 25.1723 25.5455C25.311 25.5817 25.4389 25.6493 25.5456 25.7427C25.8627 25.971 26.1481 26.238 26.3949 26.5371C26.6609 26.8449 26.9883 27.2024 27.3567 27.5798C27.6657 27.9047 28.0086 28.1975 28.3799 28.4537L28.6664 28.6125C28.8944 28.7417 29.1385 28.8419 29.3929 28.9105C29.6417 28.9979 29.9095 29.0218 30.1705 28.98L33.803 28.8807C34.0866 28.8985 34.3699 28.8401 34.6215 28.7118C34.7017 28.6761 34.7738 28.6252 34.8335 28.5621C34.8933 28.499 34.9395 28.425 34.9694 28.3444C35.0102 28.1947 35.0102 28.0373 34.9694 27.8876C34.951 27.7615 34.9166 27.6381 34.8671 27.5202L34.7852 27.4705Z" fill="black"/>
</svg>
