<svg width="13" height="13" viewBox="0 0 13 13" fill="none" xmlns="http://www.w3.org/2000/svg">
<path d="M12.7896 11.1417C12.6301 10.568 12.2994 10.0654 11.8475 9.71046C10.9334 9.12992 9.94998 8.68344 8.9239 8.3831C8.68273 8.31578 8.44729 8.22697 8.22007 8.11763C8.04506 7.96969 7.93216 7.75388 7.90605 7.51743V7.10191C8.66226 5.84887 9.06445 4.39044 9.06466 2.90052C9.1157 2.57752 9.10624 2.24694 9.03683 1.92785C8.96743 1.60876 8.83944 1.30748 8.66026 1.04137C8.48108 0.775268 8.25426 0.549607 7.99286 0.377404C7.73146 0.205201 7.44067 0.0898632 7.13725 0.0380426C6.92525 0.00774418 6.7104 0.00774418 6.49839 0.0380426C6.19299 -0.0196248 5.87986 -0.0116617 5.57739 0.0614645C5.27491 0.134591 4.98919 0.271405 4.73702 0.463874C4.48484 0.656342 4.27128 0.900584 4.10888 1.18225C3.94649 1.46392 3.83853 1.77734 3.79135 2.10411C3.75892 2.36845 3.75892 2.63618 3.79135 2.90052C3.81855 4.44582 4.28275 5.94636 5.12322 7.20579V7.44817C5.11209 7.56577 5.07848 7.67969 5.02448 7.78291C4.97047 7.88614 4.89721 7.97648 4.8092 8.04837C4.58467 8.17951 4.34901 8.28772 4.10537 8.37155C3.08312 8.6731 2.10078 9.11135 1.18177 9.67583C0.728157 10.0439 0.397828 10.5579 0.23972 11.1417C0.0681978 11.7437 -0.0122173 12.371 0.00150045 13H12.9953C13.0195 12.3729 12.9501 11.7456 12.7896 11.1417Z" fill="black"/>
</svg>
