<svg width="138" height="48" viewBox="0 0 138 48" fill="none" xmlns="http://www.w3.org/2000/svg">
<path d="M75 17V13H71C68.7909 13 67 14.7909 67 17V21H63V25H67V35H71V25H75V21H71V17H75Z" fill="white"/>
<path d="M25.95 17.1441C27.635 16.6481 28.934 17.4141 29.527 18.3231C30.2 18.0921 30.858 17.8421 31.538 17.6151C31.5249 18.3015 31.2117 18.9476 30.681 19.3831C31.366 19.5531 31.985 18.8921 31.985 18.8921C31.816 19.8921 30.979 20.6801 30.422 20.9161C30.191 27.6661 27.247 32.1331 20.345 31.9981H19.899C19.489 31.9981 15.735 31.5381 15.001 30.1111C17.272 30.3071 18.894 29.6891 19.694 28.9341C18.734 28.6341 17.015 28.4571 16.715 25.9841C17.064 26.0901 17.279 26.2121 17.905 26.1031C16.705 25.2471 15.374 24.5301 15.448 22.3301C15.733 22.6581 16.515 22.8661 16.788 22.8021C16.085 22.5611 14.818 19.4421 15.894 17.8501C17.712 19.7041 19.629 21.4561 23.046 21.6231C23.254 19.3301 24.183 17.7931 25.95 17.1441Z" fill="white"/>
<path fill-rule="evenodd" clip-rule="evenodd" d="M108 16H122C123.65 16 125 17.35 125 19V29C125 30.65 123.65 32 122 32H108C106.35 32 105 30.65 105 29V19C105 17.35 106.35 16 108 16ZM111.027 20.002V27.998L120.014 24L111.027 20.002Z" fill="white"/>
</svg>
